<?xml version="1.0" encoding="utf-8"?>
<!-- Generator: Adobe Illustrator 19.2.1, SVG Export Plug-In . SVG Version: 6.00 Build 0)  -->
<svg version="1.1" id="Layer_1" xmlns="http://www.w3.org/2000/svg" xmlns:xlink="http://www.w3.org/1999/xlink" x="0px" y="0px"
	 viewBox="0 0 516.7 417.3" style="enable-background:new 0 0 516.7 417.3;" xml:space="preserve">
<style type="text/css">
	.st0{stroke:#000000;stroke-width:0.2366;stroke-miterlimit:10;}
	.st1{fill:none;stroke:#000000;stroke-width:0.2366;stroke-miterlimit:10;}
	.st2{fill:#FFFFFF;stroke:#000000;stroke-width:0.2366;stroke-miterlimit:10;}
	.st3{fill:#FFFFFF;stroke:#000000;stroke-width:4.4442;stroke-miterlimit:10;}
	.st4{opacity:0.51;fill:#FFFFFF;stroke:#000000;stroke-width:7.379405e-02;stroke-miterlimit:10;}
	.st5{fill:#FFFFFF;stroke:#000000;stroke-width:7.379405e-02;stroke-miterlimit:10;}
	.st6{fill:#FFFFFF;}
	.st7{fill:#00AEEF;}
	.st8{fill:#FFF200;}
	.st9{fill:#EC008C;}
</style>
<g>
	<g>
		<g>
			<path d="M56.5,388.7c0,15-9.1,25-22.9,25c-5,0-9.3-1.5-12.6-4.2c-1.3-1.1-3.3-0.1-3.3,1.6l0,0c0,1.1-0.9,2-2,2H5.6
				c-1.1,0-2-0.9-2-2v-64c0-1.1,0.9-2,2-2h10.1c1.1,0,2,0.9,2,2v18.8c0,1.7,2,2.7,3.3,1.6c3.3-2.7,7.4-4.1,12.3-4.1
				C47.2,363.3,56.5,373.5,56.5,388.7z M42.2,388.3c0-7.9-5-13.6-12.2-13.6s-12.3,5.6-12.3,13.6c0,8.2,5,13.7,12.3,13.7
				S42.2,396.3,42.2,388.3z"/>
			<path d="M84.4,349.2c0,4.6-3.1,7.9-7.6,7.9c-4.5,0-7.6-3.3-7.6-7.9c0-4.6,3.1-7.9,7.6-7.9C81.2,341.4,84.4,344.7,84.4,349.2z
				 M69.7,410.6v-45.3c0-1.1,0.9-2,2-2h10.1c1.1,0,2,0.9,2,2v45.3c0,1.1-0.9,2-2,2H71.7C70.6,412.6,69.7,411.7,69.7,410.6z"/>
			<path d="M116.6,400.1v10.6c0,1.1-0.9,2-2,2h-10.1c-1.1,0-2-0.9-2-2v-64c0-1.1,0.9-2,2-2h10.1c1.1,0,2,0.9,2,2V377
				c0,1.8,2.2,2.7,3.5,1.4l14-14.4c0.4-0.4,0.9-0.6,1.5-0.6H146c1.8,0,2.7,2.1,1.5,3.4l-13.7,14.4c-0.6,0.7-0.7,1.7-0.3,2.5
				l16.1,25.8c0.8,1.4-0.1,3.1-1.7,3.1H136c-0.7,0-1.4-0.4-1.7-1l-10-16.8c-0.7-1.2-2.3-1.3-3.2-0.4l-3.9,4.2
				C116.8,399,116.6,399.5,116.6,400.1z"/>
			<path d="M204.4,392.3h-30.5c-1.5,0-2.5,1.6-1.8,3c2.2,4.4,6.4,6.9,11.6,6.9c4.1,0,7.9-1.4,11.1-4c0.8-0.7,2-0.6,2.8,0.1l4.7,4.7
				c0.8,0.8,0.8,2.1,0,2.9c-4.9,4.6-11.6,7.2-19.7,7.2c-15.8,0-25.8-10.1-25.8-25c0-15.2,10.4-25.3,25.4-25.3
				c16.7,0,24.8,10.6,24.3,27.5C206.4,391.4,205.5,392.3,204.4,392.3z M190.8,383.9c1.3,0,2.3-1.2,2-2.4c-1.1-5.1-5-8.3-10.6-8.3
				c-5.3,0-9.2,3.1-10.9,8.1c-0.4,1.3,0.6,2.6,1.9,2.6H190.8z"/>
			<path d="M282,369.8l-3.1,6.1c-0.5,1-1.7,1.4-2.7,0.9c-4.8-2.4-9.6-3.8-13.3-3.8c-3.3,0-5.7,1.1-5.7,3.7c0,7.4,26.1,3.7,26,21.1
				c0,10.1-8.9,15.4-20.1,15.4c-7.3,0-14.5-2-20-5.8c-0.8-0.6-1.1-1.7-0.7-2.6l2.8-5.9c0.5-1.1,1.9-1.5,2.9-0.8
				c4.8,3.1,10.5,4.8,15.3,4.8c3.6,0,6.2-1.2,6.2-3.9c0-7.9-25.6-3.7-25.6-21c0-10.2,8.7-15.4,19.5-15.4c6.1,0,12.4,1.6,17.6,4.5
				C282.2,367.7,282.5,368.9,282,369.8z"/>
			<path d="M347.1,381.6v29c0,1.1-0.9,2-2,2H335c-1.1,0-2-0.9-2-2v-24.8c0-6.2-3.7-10.1-9.7-10.1c-7.1,0.1-11.4,5.4-11.4,12.7v22.3
				c0,1.1-0.9,2-2,2h-10.1c-1.1,0-2-0.9-2-2v-64c0-1.1,0.9-2,2-2h10.1c1.1,0,2,0.9,2,2v19.6c0,1.8,2.1,2.7,3.4,1.4
				c3.4-3.2,8.1-4.8,13.6-4.9C340.1,362.7,347.1,370.1,347.1,381.6z"/>
			<path d="M392.4,410.9c0-1.4-1.6-2.2-2.8-1.3c-3.2,2.4-7.5,3.7-12.7,3.7c-10.6,0-17-6.4-17-15.4c0-9.3,6.7-14.8,18.8-14.9h13.6
				v-0.9c0-5.2-3.5-8.3-10.3-8.3c-4,0-8.5,1.2-13.1,3.5c-0.9,0.4-1.9,0.1-2.3-0.8l-3-6.5c-0.4-0.9,0-1.9,0.8-2.3
				c6.7-3.2,12.8-5,20.8-5c13.2,0,20.8,6.6,20.9,17.7l0.1,30.5c0,1-0.8,1.7-1.7,1.7h-10.4C393.2,412.6,392.4,411.9,392.4,410.9
				L392.4,410.9z M392.3,395.6v-2.5c0-1-0.8-1.7-1.7-1.7h-9.4c-5.4,0-8.1,1.7-8.1,5.6c0,3.8,2.9,6.2,7.7,6.2
				c5.9,0,10.5-3.1,11.4-7.2C392.3,395.8,392.3,395.7,392.3,395.6z"/>
			<path d="M440.7,367.6c2.8-2.7,6.3-4.3,10.5-4.7c1.2-0.1,2.3,0.9,2.3,2.1v8.9c0,1.2-0.9,2.1-2.1,2c-8.8,0-14.2,5.2-14.2,12.9v21.7
				c0,1.2-0.9,2.1-2.1,2.1h-9.9c-1.2,0-2.1-0.9-2.1-2.1v-45.2c0-1.2,0.9-2.1,2.1-2.1h9.9c1.2,0,2.1,0.9,2.1,2.1v0.7
				C437.2,367.9,439.4,368.9,440.7,367.6z"/>
			<path d="M509.3,392.3h-30.5c-1.5,0-2.5,1.6-1.8,3c2.2,4.4,6.4,6.9,11.6,6.9c4.1,0,7.9-1.4,11.1-4c0.8-0.7,2-0.6,2.8,0.1l4.6,4.7
				c0.8,0.8,0.8,2.1,0,2.9c-4.9,4.6-11.6,7.2-19.7,7.2c-15.8,0-25.8-10.1-25.8-25c0-15.2,10.4-25.3,25.4-25.3
				c16.7,0,24.8,10.6,24.3,27.4C511.3,391.4,510.4,392.3,509.3,392.3z M495.8,383.9c1.3,0,2.3-1.2,2-2.4c-1.1-5.1-5-8.3-10.6-8.3
				c-5.3,0-9.2,3.1-10.9,8.1c-0.4,1.3,0.6,2.7,1.9,2.7H495.8z"/>
		</g>
	</g>
	<g>
		<path d="M400.4,157.4c3.4,0,6.9-0.2,10.3-0.6c16.7-2.1,31.9-9.5,44-21.4c14.5-14.3,22.6-33.5,22.8-53.9c0.3-42.2-33.8-76.7-76-77
			c-25.4-0.2-42.3,6.4-58.8,12.8c-15,5.8-29.2,11.3-49.4,11.2c-21.6-0.1-40.9-6.7-59.6-13.1c-13.3-4.6-25.9-8.9-39.4-11
			c-4.6-0.9-9.3-1.3-13.9-1.4c-0.2,0-0.4,0-0.7,0l-0.1,0l-0.4,0c-0.3,0-0.5,0-0.8,0c-0.8,0-1.6,0-2.4,0.1
			c-40.5,2-72.3,35.3-72.6,75.9c-0.1,20.4,7.7,39.7,22,54.3c1,1,1.9,1.9,2.8,2.7c0.4,0.4,0.9,0.8,1.3,1.2c0.8,0.7,1.8,1.5,2.9,2.4
			c1,0.8,1.9,1.5,2.9,2.2c0.5,0.3,0.9,0.7,1.4,1c0.1,0.1,0.3,0.2,0.4,0.3c8.1,5.5,17.1,9.3,26.7,11.4c3.6,1.9,7.3,3.8,10.9,5.6
			c13.7,6.9,27.8,14,39.9,23.7c-16.6-2-31.8-7.2-46.6-12.3c-13.3-4.6-25.9-8.9-39.3-11c-4.6-0.9-9.3-1.3-13.9-1.4
			c-0.2,0-0.4,0-0.7,0l-0.2,0l-0.4,0c-0.2,0-0.5,0-0.7,0c-0.8,0-1.6,0-2.4,0.1c-40.5,2-72.3,35.3-72.6,75.9
			c-0.3,40.5,31.1,74.3,71.6,76.9c0.8,0.1,1.6,0.1,2.4,0.1c0.3,0,0.7,0,1,0l0.1,0c0.3,0,0.6,0,0.9,0c4.9,0,9.8-0.4,14.6-1.3
			c13.7-2.1,27.3-6.6,40.3-10.9c17.8-5.9,36.2-11.9,54.8-11.8c18.3,0.1,35.1,6,52.9,12.3c18.3,6.4,37.3,13.1,58.5,13.3
			c0.2,0,0.3,0,0.5,0c3.2,0,6.5-0.2,9.7-0.6c37.8-4.8,66.6-37.2,66.8-75.4c0.1-20.4-7.7-39.7-22-54.3l-0.5-0.5
			c-0.3-0.3-0.5-0.5-0.8-0.8c-8.9-8.6-19.8-14.9-31.7-18.4c-6.5-3.5-13-6.4-19.2-9.1c-12.8-5.6-25-11-37.3-21.6
			c14.2,1.8,27.7,6.5,41.9,11.5C360.3,150.6,379.2,157.2,400.4,157.4z M125.7,295.6l-0.2,0c-3.8,0.7-7.6,1.1-11.4,1.1
			c-0.3,0-0.6,0-1,0l-0.1,0l-1,0c-0.1,0-0.2,0-0.3,0c-0.3,0-0.6,0-0.9-0.1l-0.4,0c-32.6-2-57.9-29.1-57.7-61.8v0
			c0.2-32.7,25.9-59.4,58.5-61l0.5,0c0.3,0,0.6-0.1,0.9-0.1c0.1,0,0.3,0,0.4,0c0.2,0,0.5,0,0.7,0c0.2,0,0.5,0,0.7,0l0.2,0
			c3.7,0,7.5,0.4,11.3,1.1l0.2,0c12.2,2,24.2,6.1,37,10.4c19.8,6.8,40.3,13.8,64.3,13.9c0.4,0,0.8,0,1.2,0
			c22.4,0,38.4-6.2,53.8-12.2c11.4-4.4,23.3-9,38-10.9c5-0.6,9.9-0.9,15.2-0.9c15.9,0.1,30.9,6.2,42.3,17.2c0.2,0.2,0.4,0.4,0.7,0.7
			l0.5,0.5c11.5,11.7,17.8,27.1,17.7,43.6c-0.2,33.8-27.8,61.1-61.5,61.1c-0.1,0-0.3,0-0.4,0c-18.6-0.1-36.4-6.4-53.6-12.4
			c-18.2-6.4-37-13-57.7-13.1c-0.2,0-0.4,0-0.7,0c-20.8,0-40.2,6.4-58.9,12.6C150.7,289.6,138.3,293.6,125.7,295.6z M180.3,17.9
			c3.7,0,7.5,0.4,11.4,1.1l0.2,0c12.2,2,24.2,6.1,37,10.4c19.8,6.8,40.3,13.8,64.3,13.9c23.1,0.2,39.3-6.1,55-12.2
			c11.4-4.4,23.3-9,38-10.9c5-0.6,10-0.9,15.2-0.9c16.4,0.1,31.8,6.6,43.4,18.3c11.5,11.7,17.8,27.2,17.7,43.6
			c-0.1,16.4-6.6,31.8-18.3,43.3c-11.6,11.4-26.9,17.7-43.2,17.7c-0.1,0-0.3,0-0.4,0c-18.6-0.1-36.4-6.4-53.6-12.4
			c-18.2-6.4-37-13-57.7-13.1c-0.9,0-1.8,0-2.7,0c-20,0.4-38.8,6.6-56.9,12.6c-13.1,4.3-25.5,8.4-38,10.3l-0.2,0
			c-3.9,0.7-7.9,1.1-11.9,1.1l-0.2,0c-0.2,0-0.5,0-0.8,0l-0.2,0c-0.3,0-0.6,0-0.9,0c-0.3,0-0.5,0-0.8-0.1l-0.6-0.1
			c-11-0.7-21.6-4.3-30.7-10.4l-0.2-0.2c-0.4-0.2-0.7-0.5-1.1-0.8c-0.8-0.6-1.6-1.2-2.4-1.8c-0.8-0.7-1.6-1.3-2.3-1.9
			c-0.4-0.3-0.7-0.6-1.1-0.9c-0.7-0.6-1.4-1.3-2.2-2.1c-11.5-11.7-17.8-27.2-17.7-43.6c0.2-32.7,25.9-59.5,58.5-61l0.5,0
			c0.3,0,0.6-0.1,0.9-0.1c0.1,0,0.3,0,0.4,0c0.3,0,0.5,0,0.7,0c0.2,0,0.4,0,0.6,0L180.3,17.9z"/>
		<path d="M355.3,215.9c-11.2-11.4-29.7-11.5-41-0.3c-5.5,5.4-8.6,12.7-8.6,20.5c-0.1,7.8,2.9,15.1,8.4,20.6
			c5.5,5.6,12.9,8.6,20.6,8.6c1.2,0,2.5-0.1,3.7-0.2c6.4-0.8,12.1-3.6,16.7-8.1C366.4,245.7,366.6,227.3,355.3,215.9z M324.6,246
			c-5.3-5.5-5.2-14.3,0.2-19.7c2.2-2.2,5-3.5,8.1-3.9c4.4-0.6,8.7,0.9,11.8,4.1c5.4,5.5,5.4,14.4-0.1,19.8c-2.6,2.6-6.1,4-9.9,4
			c0,0-0.1,0-0.1,0C330.8,250.3,327.3,248.8,324.6,246L324.6,246z"/>
		<g>
			<path d="M421.5,60.5c-5.4-5.5-12.7-8.6-20.5-8.6c-7.7,0-15,2.9-20.6,8.4c-5.5,5.5-8.6,12.7-8.6,20.5c-0.1,16,12.8,29.1,28.8,29.2
				c0.1,0,0.1,0,0.2,0c1.2,0,2.5-0.1,3.7-0.2c6.3-0.8,12.1-3.6,16.7-8.1c5.5-5.4,8.6-12.7,8.6-20.5C430,73.3,427,66,421.5,60.5z
				 M399.1,67c0.6-0.1,1.2-0.1,1.9-0.1c3.7,0,7.3,1.5,9.9,4.2s4.1,6.2,4,9.9c0,3.7-1.5,7.3-4.2,9.9c-2.6,2.6-6.1,4-9.8,4
				c0,0-0.1,0-0.1,0l-0.1,0c-7.7-0.1-13.9-6.4-13.8-14.1C386.9,73.8,392.2,67.8,399.1,67z"/>
			<path d="M157.1,56.2c-5.5,5.4-8.6,12.7-8.6,20.5c-0.1,7.8,2.9,15.1,8.4,20.6c5.5,5.6,12.9,8.6,20.6,8.6c1.2,0,2.5-0.1,3.7-0.2
				c6.4-0.8,12.1-3.6,16.7-8.1c11.4-11.2,11.5-29.6,0.3-41C186.9,45.1,168.5,45,157.1,56.2z M175.7,63c4.4-0.6,8.7,0.9,11.8,4.1
				c5.4,5.5,5.4,14.4-0.1,19.8c-5.5,5.4-14.4,5.4-19.8-0.1c-2.6-2.7-4.1-6.2-4-9.9c0-3.7,1.5-7.3,4.2-9.9
				C169.8,64.7,172.6,63.4,175.7,63z"/>
			<path d="M89.3,214.9c-11.4,11.2-11.5,29.7-0.3,41l0.4,0.4l0,0c5.5,5.3,12.6,8.2,20.2,8.2c1.2,0,2.5-0.1,3.7-0.2
				c6.4-0.8,12.1-3.6,16.7-8.1c5.5-5.4,8.6-12.7,8.6-20.5c0.1-7.8-2.9-15.1-8.3-20.6C119.2,203.8,100.7,203.6,89.3,214.9z
				 M107.9,221.6c4.4-0.6,8.7,0.9,11.8,4.1c5.4,5.5,5.4,14.4-0.1,19.8c-5.5,5.4-14.4,5.4-19.8-0.1c-5.4-5.5-5.4-14.4,0.1-19.8
				C102.1,223.4,104.9,222,107.9,221.6z"/>
		</g>
	</g>
</g>
</svg>
