<?xml version="1.0" encoding="utf-8"?>
<!-- Generator: Adobe Illustrator 19.2.1, SVG Export Plug-In . SVG Version: 6.00 Build 0)  -->
<svg version="1.1" id="Layer_1" xmlns="http://www.w3.org/2000/svg" xmlns:xlink="http://www.w3.org/1999/xlink" x="0px" y="0px"
	 viewBox="0 0 515.3 420" style="enable-background:new 0 0 515.3 420;" xml:space="preserve">
<style type="text/css">
	.st0{stroke:#000000;stroke-width:0.2366;stroke-miterlimit:10;}
	.st1{fill:none;stroke:#000000;stroke-width:0.2366;stroke-miterlimit:10;}
	.st2{fill:#FFFFFF;stroke:#000000;stroke-width:0.2366;stroke-miterlimit:10;}
	.st3{fill:#FFFFFF;stroke:#000000;stroke-width:4.4442;stroke-miterlimit:10;}
	.st4{opacity:0.51;fill:#FFFFFF;stroke:#000000;stroke-width:7.379405e-02;stroke-miterlimit:10;}
	.st5{fill:#FFFFFF;stroke:#000000;stroke-width:7.379405e-02;stroke-miterlimit:10;}
	.st6{fill:#FFFFFF;}
	.st7{fill:#00AEEF;}
	.st8{fill:#FFF200;}
	.st9{fill:#EC008C;}
</style>
<g>
	<g>
		<path class="st6" d="M406.7,158.3c3.4,0,6.9-0.2,10.3-0.6c16.7-2.1,31.9-9.5,44-21.4c14.5-14.3,22.6-33.5,22.8-53.9
			c0.3-42.2-33.8-76.7-76-77c-25.4-0.2-42.3,6.4-58.8,12.8c-15,5.8-29.2,11.3-49.4,11.2c-21.6-0.1-40.9-6.7-59.6-13.1
			c-13.3-4.6-25.9-8.9-39.4-11c-4.6-0.9-9.3-1.3-13.9-1.4c-0.2,0-0.4,0-0.7,0l-0.1,0l-0.4,0c-0.3,0-0.5,0-0.8,0
			c-0.8,0-1.6,0-2.4,0.1c-40.5,2-72.3,35.3-72.6,75.9c-0.1,20.4,7.7,39.7,22,54.3c1,1,1.9,1.9,2.8,2.7c0.4,0.4,0.9,0.8,1.3,1.2
			c0.8,0.7,1.8,1.5,2.9,2.4c1,0.8,1.9,1.5,2.9,2.2c0.5,0.3,0.9,0.7,1.4,1c0.1,0.1,0.3,0.2,0.4,0.3c8.1,5.5,17.1,9.3,26.7,11.4
			c3.6,1.9,7.3,3.8,10.9,5.6c13.7,6.9,27.8,14,39.9,23.7c-16.6-2-31.8-7.2-46.6-12.3c-13.3-4.6-25.9-8.9-39.3-11
			c-4.6-0.9-9.3-1.3-13.9-1.4c-0.2,0-0.4,0-0.7,0l-0.2,0l-0.4,0c-0.2,0-0.5,0-0.7,0c-0.8,0-1.6,0-2.4,0.1
			c-40.5,2-72.3,35.3-72.6,75.9c-0.3,40.5,31.1,74.3,71.6,76.9c0.8,0.1,1.6,0.1,2.4,0.1c0.3,0,0.7,0,1,0l0.1,0c0.3,0,0.6,0,0.9,0
			c4.9,0,9.8-0.4,14.6-1.3c13.7-2.1,27.3-6.6,40.3-10.9c17.8-5.9,36.2-11.9,54.8-11.8c18.3,0.1,35.1,6,52.9,12.3
			c18.3,6.4,37.3,13.1,58.5,13.3c0.2,0,0.3,0,0.5,0c3.2,0,6.5-0.2,9.7-0.6c37.8-4.8,66.6-37.2,66.8-75.4c0.1-20.4-7.7-39.7-22-54.3
			l-0.5-0.5c-0.3-0.3-0.5-0.5-0.8-0.8c-8.9-8.6-19.8-14.9-31.7-18.4c-6.5-3.5-13-6.4-19.2-9.1c-12.8-5.6-25-11-37.3-21.6
			c14.2,1.8,27.7,6.5,41.9,11.5C366.6,151.5,385.5,158.2,406.7,158.3z M132,296.5l-0.2,0c-3.8,0.7-7.6,1.1-11.4,1.1
			c-0.3,0-0.6,0-1,0l-0.1,0l-1,0c-0.1,0-0.2,0-0.3,0c-0.3,0-0.6,0-0.9-0.1l-0.4,0c-32.6-2-57.9-29.1-57.7-61.8v0
			c0.2-32.7,25.9-59.4,58.5-61l0.5,0c0.3,0,0.6-0.1,0.9-0.1c0.1,0,0.3,0,0.4,0c0.2,0,0.5,0,0.7,0c0.2,0,0.5,0,0.7,0l0.2,0
			c3.7,0,7.5,0.4,11.3,1.1l0.2,0c12.2,2,24.2,6.1,37,10.4c19.8,6.8,40.3,13.8,64.3,13.9c0.4,0,0.8,0,1.2,0
			c22.4,0,38.4-6.2,53.8-12.2c11.4-4.4,23.3-9,38-10.9c5-0.6,9.9-0.9,15.2-0.9c15.9,0.1,30.9,6.2,42.3,17.2c0.2,0.2,0.4,0.4,0.7,0.7
			l0.5,0.5c11.5,11.7,17.8,27.1,17.7,43.6c-0.2,33.8-27.8,61.1-61.5,61.1c-0.1,0-0.3,0-0.4,0c-18.6-0.1-36.4-6.4-53.6-12.4
			c-18.2-6.4-37-13-57.7-13.1c-0.2,0-0.4,0-0.7,0c-20.8,0-40.2,6.4-58.9,12.6C157,290.5,144.6,294.6,132,296.5z M186.6,18.8
			c3.7,0,7.5,0.4,11.4,1.1l0.2,0c12.2,2,24.2,6.1,37,10.4c19.8,6.8,40.3,13.8,64.3,13.9c23.1,0.2,39.3-6.1,55-12.2
			c11.4-4.4,23.3-9,38-10.9c5-0.6,10-0.9,15.2-0.9c16.4,0.1,31.8,6.6,43.4,18.3c11.5,11.7,17.8,27.2,17.7,43.6
			c-0.1,16.4-6.6,31.8-18.3,43.3c-11.6,11.4-26.9,17.7-43.2,17.7c-0.1,0-0.3,0-0.4,0c-18.6-0.1-36.4-6.4-53.6-12.4
			c-18.2-6.4-37-13-57.7-13.1c-0.9,0-1.8,0-2.7,0c-20,0.4-38.8,6.6-56.9,12.6c-13.1,4.3-25.5,8.4-38,10.3l-0.2,0
			c-3.9,0.7-7.9,1.1-11.9,1.1l-0.2,0c-0.2,0-0.5,0-0.8,0l-0.2,0c-0.3,0-0.6,0-0.9,0c-0.3,0-0.5,0-0.8-0.1l-0.6-0.1
			c-11-0.7-21.6-4.3-30.7-10.4l-0.2-0.2c-0.4-0.2-0.7-0.5-1.1-0.8c-0.8-0.6-1.6-1.2-2.4-1.8c-0.8-0.7-1.6-1.3-2.3-1.9
			c-0.4-0.3-0.7-0.6-1.1-0.9c-0.7-0.6-1.4-1.3-2.2-2.1c-11.5-11.7-17.8-27.2-17.7-43.6c0.2-32.7,25.9-59.5,58.5-61l0.5,0
			c0.3,0,0.6-0.1,0.9-0.1c0.1,0,0.3,0,0.4,0c0.3,0,0.5,0,0.7,0c0.2,0,0.4,0,0.6,0L186.6,18.8z"/>
		<path class="st6" d="M361.7,216.8c-11.2-11.4-29.7-11.5-41-0.3c-5.5,5.4-8.6,12.7-8.6,20.5c-0.1,7.8,2.9,15.1,8.4,20.6
			c5.5,5.6,12.9,8.6,20.6,8.6c1.2,0,2.5-0.1,3.7-0.2c6.4-0.8,12.1-3.6,16.7-8.1C372.8,246.6,372.9,228.2,361.7,216.8z M330.9,247
			c-5.3-5.5-5.2-14.3,0.2-19.7c2.2-2.2,5-3.5,8.1-3.9c4.4-0.6,8.7,0.9,11.8,4.1c5.4,5.5,5.4,14.4-0.1,19.8c-2.6,2.6-6.1,4-9.9,4
			c0,0-0.1,0-0.1,0C337.2,251.2,333.6,249.7,330.9,247L330.9,247z"/>
		<g>
			<path class="st6" d="M427.9,61.4c-5.4-5.5-12.7-8.6-20.5-8.6c-7.7,0-15,2.9-20.6,8.4c-5.5,5.5-8.6,12.7-8.6,20.5
				c-0.1,16,12.8,29.1,28.8,29.2c0.1,0,0.1,0,0.2,0c1.2,0,2.5-0.1,3.7-0.2c6.3-0.8,12.1-3.6,16.7-8.1c5.5-5.4,8.6-12.7,8.6-20.5
				C436.3,74.3,433.3,67,427.9,61.4z M405.4,67.9c0.6-0.1,1.2-0.1,1.9-0.1c3.7,0,7.3,1.5,9.9,4.2s4.1,6.2,4,9.9
				c0,3.7-1.5,7.3-4.2,9.9c-2.6,2.6-6.1,4-9.8,4c0,0-0.1,0-0.1,0l-0.1,0c-7.7-0.1-13.9-6.4-13.8-14.1
				C393.2,74.7,398.5,68.8,405.4,67.9z"/>
			<path class="st6" d="M163.4,57.2c-5.5,5.4-8.6,12.7-8.6,20.5c-0.1,7.8,2.9,15.1,8.4,20.6c5.5,5.6,12.9,8.6,20.6,8.6
				c1.2,0,2.5-0.1,3.7-0.2c6.4-0.8,12.1-3.6,16.7-8.1c11.4-11.2,11.5-29.6,0.3-41C193.2,46.1,174.8,45.9,163.4,57.2z M182,63.9
				c4.4-0.6,8.7,0.9,11.8,4.1c5.4,5.5,5.4,14.4-0.1,19.8c-5.5,5.4-14.4,5.4-19.8-0.1c-2.6-2.7-4.1-6.2-4-9.9c0-3.7,1.5-7.3,4.2-9.9
				C176.2,65.7,179,64.3,182,63.9z"/>
			<path class="st6" d="M95.7,215.8c-11.4,11.2-11.5,29.7-0.3,41l0.4,0.4l0,0c5.5,5.3,12.6,8.2,20.2,8.2c1.2,0,2.5-0.1,3.7-0.2
				c6.4-0.8,12.1-3.6,16.7-8.1c5.5-5.4,8.6-12.7,8.6-20.5c0.1-7.8-2.9-15.1-8.3-20.6C125.5,204.7,107.1,204.6,95.7,215.8z
				 M114.3,222.6c4.4-0.6,8.7,0.9,11.8,4.1c5.4,5.5,5.4,14.4-0.1,19.8c-5.5,5.4-14.4,5.4-19.8-0.1c-5.4-5.5-5.4-14.4,0.1-19.8
				C108.4,224.3,111.2,223,114.3,222.6z"/>
		</g>
	</g>
	<g>
		<g>
			<path class="st6" d="M57.6,389.7c0,15-9.1,25-22.9,25c-5,0-9.3-1.5-12.6-4.2c-1.3-1.1-3.3-0.1-3.3,1.6l0,0c0,1.1-0.9,2-2,2H6.7
				c-1.1,0-2-0.9-2-2v-64c0-1.1,0.9-2,2-2h10.1c1.1,0,2,0.9,2,2v18.8c0,1.7,2,2.7,3.3,1.6c3.3-2.7,7.4-4.1,12.3-4.1
				C48.2,364.3,57.6,374.4,57.6,389.7z M43.2,389.2c0-7.9-5-13.6-12.2-13.6s-12.3,5.6-12.3,13.6c0,8.2,5,13.7,12.3,13.7
				S43.2,397.3,43.2,389.2z"/>
			<path class="st6" d="M85.4,350.2c0,4.6-3.1,7.9-7.6,7.9c-4.5,0-7.6-3.3-7.6-7.9c0-4.6,3.1-7.9,7.6-7.9
				C82.3,342.3,85.4,345.6,85.4,350.2z M70.7,411.5v-45.3c0-1.1,0.9-2,2-2h10.1c1.1,0,2,0.9,2,2v45.3c0,1.1-0.9,2-2,2H72.7
				C71.6,413.6,70.7,412.7,70.7,411.5z"/>
			<path class="st6" d="M117.6,401v10.6c0,1.1-0.9,2-2,2h-10.1c-1.1,0-2-0.9-2-2v-64c0-1.1,0.9-2,2-2h10.1c1.1,0,2,0.9,2,2v30.4
				c0,1.8,2.2,2.7,3.5,1.4l14-14.4c0.4-0.4,0.9-0.6,1.5-0.6H147c1.8,0,2.7,2.1,1.5,3.4l-13.7,14.4c-0.6,0.7-0.7,1.7-0.3,2.5
				l16.1,25.8c0.8,1.4-0.1,3.1-1.7,3.1H137c-0.7,0-1.4-0.4-1.7-1l-10-16.8c-0.7-1.2-2.3-1.3-3.2-0.4l-3.9,4.2
				C117.8,400,117.6,400.5,117.6,401z"/>
			<path class="st6" d="M205.4,393.2h-30.5c-1.5,0-2.5,1.6-1.8,3c2.2,4.4,6.4,6.9,11.6,6.9c4.1,0,7.9-1.4,11.1-4
				c0.8-0.7,2-0.6,2.8,0.1l4.7,4.7c0.8,0.8,0.8,2.1,0,2.9c-4.9,4.6-11.6,7.2-19.7,7.2c-15.8,0-25.8-10.1-25.8-25
				c0-15.2,10.4-25.3,25.4-25.3c16.7,0,24.8,10.6,24.3,27.5C207.4,392.3,206.5,393.2,205.4,393.2z M191.8,384.9c1.3,0,2.3-1.2,2-2.4
				c-1.1-5.1-5-8.3-10.6-8.3c-5.3,0-9.2,3.1-10.9,8.1c-0.4,1.3,0.6,2.6,1.9,2.6H191.8z"/>
			<path class="st6" d="M283.1,370.8l-3.1,6.1c-0.5,1-1.7,1.4-2.7,0.9c-4.8-2.4-9.6-3.8-13.3-3.8c-3.3,0-5.7,1.1-5.7,3.7
				c0,7.4,26.1,3.7,26,21.1c0,10.1-8.9,15.4-20.1,15.4c-7.3,0-14.5-2-20-5.8c-0.8-0.6-1.1-1.7-0.7-2.6l2.8-5.9
				c0.5-1.1,1.9-1.5,2.9-0.8c4.8,3.1,10.5,4.8,15.3,4.8c3.6,0,6.2-1.2,6.2-3.9c0-7.9-25.6-3.7-25.6-21c0-10.2,8.7-15.4,19.5-15.4
				c6.1,0,12.4,1.6,17.6,4.5C283.2,368.6,283.5,369.8,283.1,370.8z"/>
			<path class="st6" d="M348.1,382.6v29c0,1.1-0.9,2-2,2H336c-1.1,0-2-0.9-2-2v-24.8c0-6.2-3.7-10.1-9.7-10.1
				c-7.1,0.1-11.4,5.4-11.4,12.7v22.3c0,1.1-0.9,2-2,2h-10.1c-1.1,0-2-0.9-2-2v-64c0-1.1,0.9-2,2-2h10.1c1.1,0,2,0.9,2,2v19.6
				c0,1.8,2.1,2.7,3.4,1.4c3.4-3.2,8.1-4.8,13.6-4.9C341.1,363.7,348.1,371,348.1,382.6z"/>
			<path class="st6" d="M393.5,411.9c0-1.4-1.6-2.2-2.8-1.3c-3.2,2.4-7.5,3.7-12.7,3.7c-10.6,0-17-6.4-17-15.4
				c0-9.3,6.7-14.8,18.8-14.9h13.6V383c0-5.2-3.5-8.3-10.3-8.3c-4,0-8.5,1.2-13.1,3.5c-0.9,0.4-1.9,0.1-2.3-0.8l-3-6.5
				c-0.4-0.8,0-1.9,0.8-2.3c6.7-3.2,12.8-5,20.8-5c13.2,0,20.8,6.6,20.9,17.7l0.1,30.5c0,1-0.8,1.7-1.7,1.7h-10.4
				C394.2,413.6,393.5,412.8,393.5,411.9L393.5,411.9z M393.4,396.5V394c0-1-0.8-1.7-1.7-1.7h-9.4c-5.4,0-8.1,1.7-8.1,5.6
				c0,3.8,2.9,6.2,7.7,6.2c5.9,0,10.5-3.1,11.4-7.2C393.4,396.8,393.4,396.6,393.4,396.5z"/>
			<path class="st6" d="M441.8,368.5c2.8-2.7,6.3-4.3,10.5-4.7c1.2-0.1,2.3,0.9,2.3,2.1v8.9c0,1.2-1,2.1-2.1,2
				c-8.8,0-14.2,5.2-14.2,12.9v21.7c0,1.2-0.9,2.1-2.1,2.1h-9.9c-1.2,0-2.1-0.9-2.1-2.1v-45.2c0-1.2,0.9-2.1,2.1-2.1h9.9
				c1.2,0,2.1,0.9,2.1,2.1v0.7C438.2,368.8,440.4,369.8,441.8,368.5z"/>
			<path class="st6" d="M510.3,393.2h-30.5c-1.5,0-2.5,1.6-1.8,3c2.2,4.4,6.4,6.9,11.6,6.9c4.1,0,7.9-1.4,11.1-4
				c0.8-0.7,2-0.6,2.8,0.1l4.6,4.7c0.8,0.8,0.8,2.1,0,2.9c-4.9,4.6-11.6,7.2-19.7,7.2c-15.8,0-25.8-10.1-25.8-25
				c0-15.2,10.4-25.3,25.4-25.3c16.7,0,24.8,10.6,24.3,27.4C512.3,392.3,511.4,393.2,510.3,393.2z M496.8,384.9c1.3,0,2.3-1.2,2-2.4
				c-1.1-5.1-5-8.3-10.6-8.3c-5.3,0-9.2,3.1-10.9,8.1c-0.4,1.3,0.6,2.7,1.9,2.7H496.8z"/>
		</g>
	</g>
</g>
</svg>
